<svg width="729" height="916" viewBox="0 0 729 916" fill="none" xmlns="http://www.w3.org/2000/svg">
<path fill-rule="evenodd" clip-rule="evenodd" d="M640 761H588L633 838.5L587.5 916H639.5L683.5 838.5L640 761Z" fill="white"/>
<path d="M400 761V797H434V916H481.5V797H515.5V761H400Z" fill="white"/>
<path d="M531 761V916H577L577.5 761H531Z" fill="white"/>
<path d="M263 761H313L339.5 827V761H387V916H336L309.5 851.5V916H263V761Z" fill="white"/>
<path fill-rule="evenodd" clip-rule="evenodd" d="M137 786.5L161.5 761H221.5L247 786.5V916H199.5V881H184L183.5 916H136.5L137 786.5ZM199.5 797.5H184V845H199.5V797.5Z" fill="white"/>
<path d="M2 761L35 916H100L130.5 761H80.5L68 858H66.5L50.5 761H2Z" fill="white"/>
<path d="M687.5 846L662 888.5L677 916H729L687.5 846Z" fill="white"/>
<path d="M687.5 831L728 761H676L661.5 786.5L687.5 831Z" fill="white"/>
<path fill-rule="evenodd" clip-rule="evenodd" d="M364.849 303.663L268.579 231.761L364.849 501.218L460.421 231.761L364.849 303.663Z" fill="white"/>
<path fill-rule="evenodd" clip-rule="evenodd" d="M0 0L100.455 270.853L226.722 378.357L130.453 326.001L214.863 541.008L363.454 689L514.834 541.008L596.455 326.001L500.882 378.357L627.847 270.853L729 0L514.834 155.671L363.454 585.685L210.678 155.671L0 0Z" fill="white"/>
</svg>
